<mxfile host="app.diagrams.net" modified="2023-06-19T07:40:29.686Z" agent="Mozilla/5.0 (Macintosh; Intel Mac OS X 10_15_7) AppleWebKit/537.36 (KHTML, like Gecko) Chrome/114.0.0.0 Safari/537.36" version="21.5.0" etag="Gm_8-0ukyBGAPk58Wd2V" type="github">
  <diagram name="Seite-1" id="Af5hOrZs7R0N6yiEsJYw">
    <mxGraphModel>
      <root>
        <mxCell id="0" />
        <mxCell id="1" parent="0" />
      </root>
    </mxGraphModel>
  </diagram>
</mxfile>
